<svg width="125" height="54" viewBox="0 0 125 54" fill="none" xmlns="http://www.w3.org/2000/svg">
<path d="M1.71533 23V8.53333H4.48467L10.6433 18.7427H9.176L15.2313 8.53333H17.98L18.0213 23H14.88L14.8593 13.3487H15.438L10.602 21.4707H9.09333L4.154 13.3487H4.85667V23H1.71533ZM21.2263 23V11.8813H24.4503V23H21.2263ZM22.8383 10.3313C22.2458 10.3313 21.7636 10.1591 21.3916 9.81467C21.0196 9.47022 20.8336 9.04311 20.8336 8.53333C20.8336 8.02355 21.0196 7.59644 21.3916 7.252C21.7636 6.90755 22.2458 6.73533 22.8383 6.73533C23.4307 6.73533 23.913 6.90066 24.285 7.23133C24.657 7.54822 24.843 7.96155 24.843 8.47133C24.843 9.00867 24.657 9.45644 24.285 9.81467C23.9267 10.1591 23.4445 10.3313 22.8383 10.3313ZM31.9891 23.1653C30.6802 23.1653 29.6607 22.8347 28.9304 22.1733C28.2002 21.4982 27.8351 20.4993 27.8351 19.1767V9.422H31.0591V19.1353C31.0591 19.6038 31.1831 19.9689 31.4311 20.2307C31.6791 20.4787 32.0167 20.6027 32.4438 20.6027C32.9535 20.6027 33.3875 20.4649 33.7458 20.1893L34.6138 22.4627C34.2831 22.6969 33.8835 22.876 33.4151 23C32.9604 23.1102 32.4851 23.1653 31.9891 23.1653ZM26.1198 14.6093V12.1293H33.8284V14.6093H26.1198ZM36.4236 23V11.8813H39.5029V15.0227L39.0689 14.1133C39.3996 13.328 39.93 12.7356 40.6602 12.336C41.3904 11.9227 42.2791 11.716 43.3262 11.716V14.692C43.1884 14.6782 43.0644 14.6713 42.9542 14.6713C42.844 14.6576 42.7269 14.6507 42.6029 14.6507C41.7211 14.6507 41.0047 14.9056 40.4536 15.4153C39.9162 15.9113 39.6476 16.6898 39.6476 17.7507V23H36.4236ZM51.3366 23V20.83L51.13 20.3547V16.4693C51.13 15.7804 50.9164 15.2431 50.4893 14.8573C50.076 14.4716 49.4353 14.2787 48.5673 14.2787C47.9749 14.2787 47.3893 14.3751 46.8106 14.568C46.2458 14.7471 45.7635 14.9951 45.364 15.312L44.2066 13.0593C44.8129 12.6322 45.5431 12.3016 46.3973 12.0673C47.2515 11.8331 48.1195 11.716 49.0013 11.716C50.696 11.716 52.0118 12.1156 52.9486 12.9147C53.8855 13.7138 54.354 14.9607 54.354 16.6553V23H51.3366ZM47.9473 23.1653C47.0793 23.1653 46.3353 23.0207 45.7153 22.7313C45.0953 22.4282 44.62 22.0218 44.2893 21.512C43.9586 21.0022 43.7933 20.4304 43.7933 19.7967C43.7933 19.1353 43.9518 18.5567 44.2686 18.0607C44.5993 17.5647 45.116 17.1789 45.8186 16.9033C46.5213 16.614 47.4375 16.4693 48.5673 16.4693H51.5226V18.35H48.9186C48.1609 18.35 47.6373 18.474 47.348 18.722C47.0724 18.97 46.9346 19.28 46.9346 19.652C46.9346 20.0653 47.0931 20.396 47.41 20.644C47.7406 20.8782 48.1884 20.9953 48.7533 20.9953C49.2906 20.9953 49.7729 20.8713 50.2 20.6233C50.6271 20.3616 50.9371 19.9827 51.13 19.4867L51.626 20.9747C51.3918 21.6911 50.9646 22.2353 50.3446 22.6073C49.7246 22.9793 48.9255 23.1653 47.9473 23.1653ZM60.1652 23.248C59.187 23.248 58.2845 23.0689 57.4579 22.7107C56.645 22.3387 55.9767 21.8151 55.4532 21.14L57.3132 18.908C57.7127 19.4316 58.133 19.8311 58.5739 20.1067C59.0147 20.3684 59.4901 20.4993 59.9999 20.4993C61.3639 20.4993 62.0459 19.7002 62.0459 18.102V11.22H56.9619V8.53333H65.3732V17.916C65.3732 19.7071 64.9323 21.0436 64.0505 21.9253C63.1687 22.8071 61.8736 23.248 60.1652 23.248ZM75.2729 23V20.83L75.0662 20.3547V16.4693C75.0662 15.7804 74.8526 15.2431 74.4255 14.8573C74.0122 14.4716 73.3715 14.2787 72.5035 14.2787C71.9111 14.2787 71.3255 14.3751 70.7469 14.568C70.182 14.7471 69.6997 14.9951 69.3002 15.312L68.1429 13.0593C68.7491 12.6322 69.4793 12.3016 70.3335 12.0673C71.1877 11.8331 72.0557 11.716 72.9375 11.716C74.6322 11.716 75.948 12.1156 76.8849 12.9147C77.8217 13.7138 78.2902 14.9607 78.2902 16.6553V23H75.2729ZM71.8835 23.1653C71.0155 23.1653 70.2715 23.0207 69.6515 22.7313C69.0315 22.4282 68.5562 22.0218 68.2255 21.512C67.8949 21.0022 67.7295 20.4304 67.7295 19.7967C67.7295 19.1353 67.888 18.5567 68.2049 18.0607C68.5355 17.5647 69.0522 17.1789 69.7549 16.9033C70.4575 16.614 71.3737 16.4693 72.5035 16.4693H75.4589V18.35H72.8549C72.0971 18.35 71.5735 18.474 71.2842 18.722C71.0086 18.97 70.8709 19.28 70.8709 19.652C70.8709 20.0653 71.0293 20.396 71.3462 20.644C71.6769 20.8782 72.1246 20.9953 72.6895 20.9953C73.2269 20.9953 73.7091 20.8713 74.1362 20.6233C74.5633 20.3616 74.8733 19.9827 75.0662 19.4867L75.5622 20.9747C75.328 21.6911 74.9009 22.2353 74.2809 22.6073C73.6609 22.9793 72.8617 23.1653 71.8835 23.1653ZM95.4474 11.716C96.3292 11.716 97.1076 11.8951 97.7827 12.2533C98.4716 12.5978 99.0089 13.1351 99.3947 13.8653C99.7943 14.5818 99.9941 15.5049 99.9941 16.6347V23H96.7701V17.1307C96.7701 16.2351 96.5841 15.5738 96.2121 15.1467C95.8401 14.7196 95.3165 14.506 94.6414 14.506C94.1729 14.506 93.7527 14.6162 93.3807 14.8367C93.0087 15.0433 92.7194 15.3602 92.5127 15.7873C92.3061 16.2144 92.2027 16.7587 92.2027 17.42V23H88.9787V17.1307C88.9787 16.2351 88.7927 15.5738 88.4207 15.1467C88.0625 14.7196 87.5458 14.506 86.8707 14.506C86.4023 14.506 85.9821 14.6162 85.6101 14.8367C85.2381 15.0433 84.9487 15.3602 84.7421 15.7873C84.5354 16.2144 84.4321 16.7587 84.4321 17.42V23H81.2081V11.8813H84.2874V14.9193L83.7087 14.0307C84.0945 13.2729 84.6387 12.7011 85.3414 12.3153C86.0578 11.9158 86.8707 11.716 87.7801 11.716C88.7996 11.716 89.6883 11.9778 90.4461 12.5013C91.2176 13.0111 91.7274 13.7964 91.9754 14.8573L90.8387 14.5473C91.2107 13.6793 91.8032 12.9904 92.6161 12.4807C93.4427 11.9709 94.3865 11.716 95.4474 11.716ZM107.575 23.1653C106.652 23.1653 105.825 22.9862 105.095 22.628C104.379 22.2698 103.821 21.7256 103.421 20.9953C103.022 20.2513 102.822 19.3076 102.822 18.164V11.8813H106.046V17.6887C106.046 18.6118 106.239 19.2938 106.625 19.7347C107.024 20.1618 107.582 20.3753 108.299 20.3753C108.795 20.3753 109.235 20.272 109.621 20.0653C110.007 19.8449 110.31 19.5142 110.531 19.0733C110.751 18.6187 110.861 18.0538 110.861 17.3787V11.8813H114.085V23H111.027V19.9413L111.585 20.83C111.213 21.6016 110.661 22.1871 109.931 22.5867C109.215 22.9724 108.429 23.1653 107.575 23.1653ZM117.072 23V11.8813H120.151V15.0227L119.717 14.1133C120.048 13.328 120.578 12.7356 121.309 12.336C122.039 11.9227 122.928 11.716 123.975 11.716V14.692C123.837 14.6782 123.713 14.6713 123.603 14.6713C123.492 14.6576 123.375 14.6507 123.251 14.6507C122.37 14.6507 121.653 14.9056 121.102 15.4153C120.565 15.9113 120.296 16.6898 120.296 17.7507V23H117.072Z" fill="black"/>
<path d="M30.1504 44.2197C30.1807 44.1138 30.2084 43.9826 30.2336 43.8262C30.2589 43.6698 30.2816 43.4755 30.3018 43.2434C30.3219 43.0113 30.3371 42.7363 30.3472 42.4185C30.3573 42.0955 30.3623 41.7196 30.3623 41.2908V36.3638C30.3623 35.9349 30.3573 35.5615 30.3472 35.2437C30.3371 34.9207 30.3219 34.6432 30.3018 34.4111C30.2816 34.174 30.2589 33.9772 30.2336 33.8208C30.2084 33.6644 30.1807 33.5332 30.1504 33.4272V33.397H31.9592V33.4272C31.929 33.5332 31.8987 33.6644 31.8684 33.8208C31.8432 33.9772 31.8205 34.174 31.8003 34.4111C31.7852 34.6432 31.77 34.9207 31.7549 35.2437C31.7448 35.5615 31.7397 35.9349 31.7397 36.3638V41.2908C31.7397 41.7196 31.7448 42.0955 31.7549 42.4185C31.77 42.7363 31.7852 43.0113 31.8003 43.2434C31.8205 43.4755 31.8432 43.6698 31.8684 43.8262C31.8987 43.9826 31.929 44.1138 31.9592 44.2197V44.25H30.1504V44.2197ZM39.4897 39.1489C39.4897 38.4829 39.356 37.9935 39.0886 37.6807C38.8212 37.3678 38.463 37.2114 38.0139 37.2114C37.8525 37.2114 37.6708 37.2467 37.469 37.3174C37.2672 37.383 37.0603 37.4738 36.8484 37.5898C36.6365 37.7008 36.4246 37.832 36.2126 37.9834C36.0007 38.1348 35.8014 38.2962 35.6147 38.4678L35.5996 39.4592V41.2908C35.5996 41.7196 35.6047 42.0955 35.6147 42.4185C35.6248 42.7363 35.64 43.0113 35.6602 43.2434C35.6803 43.4755 35.703 43.6698 35.7283 43.8262C35.7535 43.9826 35.7812 44.1138 35.8115 44.2197V44.25H34.0632V44.2197C34.0935 44.1138 34.1213 43.9826 34.1465 43.8262C34.1768 43.6698 34.1995 43.4755 34.2146 43.2434C34.2348 43.0113 34.2499 42.7363 34.26 42.4185C34.2751 42.0955 34.2827 41.7196 34.2827 41.2908V39.4592C34.2827 39.0304 34.2751 38.657 34.26 38.3391C34.2499 38.0162 34.2348 37.7387 34.2146 37.5066C34.1995 37.2745 34.1768 37.0802 34.1465 36.9238C34.1213 36.7674 34.0935 36.6362 34.0632 36.5303V36.5H35.8115V36.5303C35.7712 36.6564 35.7384 36.8179 35.7131 37.0146C35.693 37.2064 35.6702 37.4587 35.645 37.7715C35.8519 37.5999 36.0739 37.4284 36.311 37.2568C36.5532 37.0853 36.803 36.9339 37.0603 36.8027C37.3176 36.6665 37.58 36.558 37.8474 36.4773C38.1148 36.3915 38.3772 36.3486 38.6345 36.3486C39.0281 36.3486 39.3611 36.4167 39.6335 36.553C39.9111 36.6892 40.1356 36.8683 40.3071 37.0903C40.4837 37.3123 40.6099 37.5671 40.6855 37.8547C40.7663 38.1373 40.8066 38.4249 40.8066 38.7175V41.2908C40.8066 41.7196 40.8117 42.0955 40.8218 42.4185C40.8319 42.7363 40.847 43.0113 40.8672 43.2434C40.8874 43.4755 40.9101 43.6698 40.9353 43.8262C40.9605 43.9826 40.9883 44.1138 41.0186 44.2197V44.25H39.2703V44.2197C39.3005 44.1138 39.3283 43.9826 39.3535 43.8262C39.3838 43.6698 39.4065 43.4755 39.4216 43.2434C39.4418 43.0113 39.4569 42.7363 39.467 42.4185C39.4822 42.0955 39.4897 41.7196 39.4897 41.2908V39.1489ZM46.5435 36.3638C46.7503 36.3638 46.9572 36.3814 47.1641 36.4167C47.3709 36.4521 47.5728 36.5025 47.7695 36.5681C47.9663 36.6337 48.153 36.7144 48.3296 36.8103C48.5062 36.9062 48.6651 37.0146 48.8064 37.1357V35.8945C48.8064 35.4657 48.8014 35.0923 48.7913 34.7744C48.7812 34.4515 48.766 34.174 48.7458 33.9419C48.7257 33.7098 48.703 33.5155 48.6777 33.3591C48.6525 33.2027 48.6248 33.0715 48.5945 32.9656V32.9353H50.3428V32.9656C50.3125 33.0715 50.2822 33.2027 50.252 33.3591C50.2267 33.5155 50.204 33.7098 50.1838 33.9419C50.1687 34.174 50.1536 34.4515 50.1384 34.7744C50.1283 35.0923 50.1233 35.4657 50.1233 35.8945V41.2908C50.1233 41.7196 50.1283 42.0955 50.1384 42.4185C50.1536 42.7363 50.1687 43.0113 50.1838 43.2434C50.204 43.4755 50.2267 43.6698 50.252 43.8262C50.2822 43.9826 50.3125 44.1138 50.3428 44.2197V44.25H48.6702V44.2197C48.6853 44.1794 48.6979 44.1213 48.708 44.0457C48.7181 43.9649 48.7307 43.8665 48.7458 43.7505C48.4885 43.9119 48.1656 44.0583 47.7771 44.1895C47.3886 44.3206 46.937 44.3862 46.4224 44.3862C45.8219 44.3862 45.277 44.2929 44.7876 44.1062C44.2982 43.9195 43.8794 43.6521 43.5312 43.304C43.1882 42.9558 42.9233 42.5345 42.7366 42.04C42.5499 41.5405 42.4565 40.9805 42.4565 40.3599C42.4565 39.7897 42.5575 39.2625 42.7593 38.7781C42.9611 38.2887 43.2437 37.8648 43.6069 37.5066C43.9702 37.1484 44.4016 36.8683 44.9011 36.6665C45.4006 36.4647 45.9481 36.3638 46.5435 36.3638ZM48.8064 38.4678C48.6046 37.938 48.3145 37.547 47.936 37.2947C47.5627 37.0424 47.1414 36.9163 46.6721 36.9163C46.2786 36.9163 45.9153 36.9869 45.5823 37.1282C45.2493 37.2644 44.9642 37.4637 44.7271 37.7261C44.4899 37.9884 44.3032 38.3114 44.167 38.6948C44.0358 39.0732 43.9702 39.5046 43.9702 39.989C43.9702 40.5339 44.0308 41.041 44.1519 41.5103C44.2729 41.9795 44.4495 42.3882 44.6816 42.7363C44.9188 43.0794 45.2114 43.3494 45.5596 43.5461C45.9077 43.7379 46.3088 43.8337 46.7629 43.8337C47.0001 43.8337 47.2221 43.806 47.429 43.7505C47.6358 43.695 47.825 43.6243 47.9966 43.5386C48.1681 43.4528 48.3195 43.3595 48.4507 43.2585C48.5819 43.1526 48.6903 43.0492 48.7761 42.9482C48.7862 42.7313 48.7938 42.484 48.7988 42.2065C48.8039 41.929 48.8064 41.6238 48.8064 41.2908V38.4678ZM51.8262 40.3599C51.8262 39.7897 51.9321 39.2625 52.144 38.7781C52.356 38.2887 52.6461 37.8648 53.0144 37.5066C53.3878 37.1484 53.8267 36.8683 54.3313 36.6665C54.8359 36.4647 55.3783 36.3638 55.9585 36.3638C56.5286 36.3638 57.0635 36.4596 57.563 36.6514C58.0675 36.8381 58.5065 37.1055 58.8799 37.4536C59.2533 37.8018 59.5459 38.2256 59.7578 38.7251C59.9748 39.2246 60.0833 39.7847 60.0833 40.4053C60.0833 40.925 59.9924 41.4245 59.8108 41.9038C59.6292 42.3831 59.3617 42.807 59.0085 43.1753C58.6554 43.5436 58.2214 43.8388 57.7068 44.0608C57.1972 44.2778 56.6094 44.3862 55.9434 44.3862C55.3783 44.3862 54.8459 44.2929 54.3464 44.1062C53.8469 43.9195 53.4105 43.6521 53.0371 43.304C52.6637 42.9558 52.3686 42.5345 52.1516 42.04C51.9347 41.5405 51.8262 40.9805 51.8262 40.3599ZM56.1174 43.8337C56.4757 43.8337 56.8036 43.7631 57.1013 43.6218C57.4041 43.4806 57.6639 43.2762 57.8809 43.0088C58.0978 42.7414 58.2668 42.4159 58.3879 42.0325C58.509 41.649 58.5696 41.2151 58.5696 40.7307C58.5696 40.1858 58.5116 39.6812 58.3955 39.217C58.2795 38.7478 58.1054 38.3442 57.8733 38.0061C57.6462 37.663 57.3586 37.3956 57.0105 37.2039C56.6624 37.0121 56.2562 36.9163 55.792 36.9163C55.4338 36.9163 55.1058 36.9869 54.8081 37.1282C54.5104 37.2644 54.2506 37.4637 54.0286 37.7261C53.8116 37.9884 53.6426 38.3114 53.5215 38.6948C53.4004 39.0732 53.3398 39.5046 53.3398 39.989C53.3398 40.5339 53.3979 41.041 53.5139 41.5103C53.635 41.9795 53.8116 42.3882 54.0437 42.7363C54.2758 43.0794 54.5634 43.3494 54.9065 43.5461C55.2546 43.7379 55.6583 43.8337 56.1174 43.8337ZM66.9932 39.1489C66.9932 38.4829 66.8595 37.9935 66.592 37.6807C66.3246 37.3678 65.9664 37.2114 65.5173 37.2114C65.3559 37.2114 65.1742 37.2467 64.9724 37.3174C64.7706 37.383 64.5637 37.4738 64.3518 37.5898C64.1399 37.7008 63.928 37.832 63.7161 37.9834C63.5042 38.1348 63.3049 38.2962 63.1182 38.4678L63.103 39.4592V41.2908C63.103 41.7196 63.1081 42.0955 63.1182 42.4185C63.1283 42.7363 63.1434 43.0113 63.1636 43.2434C63.1838 43.4755 63.2065 43.6698 63.2317 43.8262C63.2569 43.9826 63.2847 44.1138 63.3149 44.2197V44.25H61.5667V44.2197C61.5969 44.1138 61.6247 43.9826 61.6499 43.8262C61.6802 43.6698 61.7029 43.4755 61.718 43.2434C61.7382 43.0113 61.7533 42.7363 61.7634 42.4185C61.7786 42.0955 61.7861 41.7196 61.7861 41.2908V39.4592C61.7861 39.0304 61.7786 38.657 61.7634 38.3391C61.7533 38.0162 61.7382 37.7387 61.718 37.5066C61.7029 37.2745 61.6802 37.0802 61.6499 36.9238C61.6247 36.7674 61.5969 36.6362 61.5667 36.5303V36.5H63.3149V36.5303C63.2746 36.6564 63.2418 36.8179 63.2166 37.0146C63.1964 37.2064 63.1737 37.4587 63.1484 37.7715C63.3553 37.5999 63.5773 37.4284 63.8145 37.2568C64.0566 37.0853 64.3064 36.9339 64.5637 36.8027C64.821 36.6665 65.0834 36.558 65.3508 36.4773C65.6182 36.3915 65.8806 36.3486 66.1379 36.3486C66.5315 36.3486 66.8645 36.4167 67.137 36.553C67.4145 36.6892 67.639 36.8683 67.8105 37.0903C67.9871 37.3123 68.1133 37.5671 68.189 37.8547C68.2697 38.1373 68.3101 38.4249 68.3101 38.7175V41.2908C68.3101 41.7196 68.3151 42.0955 68.3252 42.4185C68.3353 42.7363 68.3504 43.0113 68.3706 43.2434C68.3908 43.4755 68.4135 43.6698 68.4387 43.8262C68.4639 43.9826 68.4917 44.1138 68.522 44.2197V44.25H66.7737V44.2197C66.804 44.1138 66.8317 43.9826 66.8569 43.8262C66.8872 43.6698 66.9099 43.4755 66.925 43.2434C66.9452 43.0113 66.9604 42.7363 66.9705 42.4185C66.9856 42.0955 66.9932 41.7196 66.9932 41.2908V39.1489ZM73.9863 44.3862C73.4263 44.3862 72.9015 44.2979 72.4121 44.1213C71.9227 43.9447 71.4963 43.6874 71.1331 43.3494C70.7698 43.0063 70.4822 42.585 70.2703 42.0854C70.0634 41.5809 69.96 41.0057 69.96 40.3599C69.96 39.7897 70.0558 39.2625 70.2476 38.7781C70.4393 38.2887 70.7042 37.8648 71.0422 37.5066C71.3803 37.1484 71.7738 36.8683 72.2229 36.6665C72.677 36.4647 73.1664 36.3638 73.6912 36.3638C74.2109 36.3638 74.6927 36.4546 75.1367 36.6362C75.5807 36.8128 75.9642 37.0727 76.2871 37.4158C76.6151 37.7538 76.8724 38.1751 77.0591 38.6797C77.2508 39.1792 77.3542 39.7493 77.3694 40.3901C76.7992 40.38 76.2291 40.3725 75.6589 40.3674C75.0888 40.3624 74.4959 40.3599 73.8804 40.3599C73.4414 40.3599 73.0125 40.3624 72.5938 40.3674C72.18 40.3725 71.8066 40.38 71.4736 40.3901C71.5039 40.9149 71.5846 41.3892 71.7158 41.813C71.8521 42.2368 72.0362 42.6001 72.2683 42.9028C72.5055 43.2005 72.7905 43.4301 73.1235 43.5916C73.4616 43.753 73.8425 43.8337 74.2664 43.8337C74.559 43.8337 74.834 43.8009 75.0913 43.7354C75.3537 43.6647 75.5908 43.5688 75.8027 43.4478C76.0146 43.3267 76.2039 43.1854 76.3704 43.0239C76.5369 42.8574 76.6781 42.6783 76.7942 42.4866L76.885 42.532L76.325 43.8792C76.0525 44.0204 75.7271 44.1415 75.3486 44.2424C74.9702 44.3383 74.5161 44.3862 73.9863 44.3862ZM72.9797 39.7695C73.4843 39.7695 73.9889 39.7695 74.4934 39.7695C75.003 39.7645 75.4647 39.7544 75.8784 39.7393C75.833 39.3003 75.7472 38.9067 75.6211 38.5586C75.495 38.2104 75.3335 37.9153 75.1367 37.6731C74.9399 37.4309 74.7078 37.2442 74.4404 37.113C74.173 36.9819 73.8778 36.9163 73.5549 36.9163C73.2623 36.9163 72.9924 36.9819 72.7451 37.113C72.5029 37.2392 72.291 37.4233 72.1094 37.6655C71.9277 37.9077 71.7814 38.2054 71.6704 38.5586C71.5594 38.9067 71.4938 39.3053 71.4736 39.7544C71.7007 39.7645 71.9403 39.7695 72.1926 39.7695C72.4449 39.7695 72.7073 39.7695 72.9797 39.7695ZM82.4175 38.0212L82.3115 38.0364C82.2762 37.9203 82.2182 37.7967 82.1375 37.6655C82.0618 37.5343 81.9609 37.4132 81.8347 37.3022C81.7136 37.1912 81.5648 37.1004 81.3882 37.0298C81.2166 36.9541 81.0173 36.9163 80.7903 36.9163C80.6339 36.9163 80.485 36.939 80.3438 36.9844C80.2075 37.0298 80.0864 37.0979 79.9805 37.1887C79.8796 37.2745 79.7988 37.383 79.7383 37.5142C79.6777 37.6453 79.6475 37.7992 79.6475 37.9758C79.6475 38.2231 79.7231 38.4602 79.8745 38.6873C80.0309 38.9093 80.2252 39.1313 80.4573 39.3533C80.6894 39.5702 80.9391 39.7897 81.2065 40.0117C81.479 40.2337 81.7313 40.4658 81.9634 40.708C82.1955 40.9502 82.3872 41.21 82.5386 41.4875C82.695 41.76 82.7732 42.0552 82.7732 42.373C82.7732 42.6304 82.7278 42.8826 82.637 43.1299C82.5461 43.3721 82.4049 43.589 82.2131 43.7808C82.0264 43.9725 81.7843 44.1289 81.4866 44.25C81.1939 44.366 80.8433 44.4241 80.4346 44.4241C80.1924 44.4241 79.9653 44.4014 79.7534 44.356C79.5465 44.3105 79.3548 44.255 79.1782 44.1895C79.0067 44.1188 78.8503 44.0431 78.709 43.9624C78.5728 43.8766 78.4517 43.7959 78.3457 43.7202L78.4214 42.2822H78.5425C78.5929 42.5194 78.6686 42.7363 78.7695 42.9331C78.8704 43.1299 78.9941 43.2989 79.1404 43.4402C79.2917 43.5764 79.4633 43.6849 79.655 43.7656C79.8468 43.8413 80.0562 43.8792 80.2832 43.8792C80.6566 43.8792 80.9517 43.7757 81.1687 43.5688C81.3907 43.362 81.5017 43.092 81.5017 42.759C81.5017 42.4916 81.426 42.2469 81.2747 42.0249C81.1283 41.7979 80.9417 41.5809 80.7146 41.374C80.4875 41.1672 80.2428 40.9603 79.9805 40.7534C79.7231 40.5465 79.481 40.3271 79.2539 40.095C79.0269 39.8578 78.8376 39.6005 78.6863 39.323C78.54 39.0404 78.4668 38.7201 78.4668 38.3618C78.4668 38.0692 78.5198 37.8018 78.6257 37.5596C78.7367 37.3123 78.8881 37.1029 79.0798 36.9314C79.2766 36.7548 79.5087 36.6186 79.7761 36.5227C80.0435 36.4268 80.3362 36.3789 80.6541 36.3789C81.0728 36.3789 81.421 36.4243 81.6985 36.5151C81.981 36.6009 82.1955 36.6842 82.3418 36.7649L82.4175 38.0212ZM84.5366 39.4592C84.5366 39.0304 84.5291 38.657 84.5139 38.3391C84.5038 38.0162 84.4887 37.7387 84.4685 37.5066C84.4534 37.2745 84.4307 37.0802 84.4004 36.9238C84.3752 36.7674 84.3474 36.6362 84.3171 36.5303V36.5H86.0654V36.5303C86.0352 36.6362 86.0074 36.7674 85.9822 36.9238C85.9569 37.0802 85.9342 37.2745 85.9141 37.5066C85.8939 37.7387 85.8787 38.0162 85.8687 38.3391C85.8586 38.657 85.8535 39.0304 85.8535 39.4592V41.2908C85.8535 41.7196 85.8586 42.0955 85.8687 42.4185C85.8787 42.7363 85.8939 43.0113 85.9141 43.2434C85.9342 43.4755 85.9569 43.6698 85.9822 43.8262C86.0074 43.9826 86.0352 44.1138 86.0654 44.2197V44.25H84.3171V44.2197C84.3474 44.1138 84.3752 43.9826 84.4004 43.8262C84.4307 43.6698 84.4534 43.4755 84.4685 43.2434C84.4887 43.0113 84.5038 42.7363 84.5139 42.4185C84.5291 42.0955 84.5366 41.7196 84.5366 41.2908V39.4592ZM84.3777 34.2068C84.3777 34.0958 84.3979 33.9924 84.4382 33.8965C84.4836 33.7956 84.5417 33.7098 84.6123 33.6392C84.6829 33.5635 84.7662 33.5055 84.8621 33.4651C84.963 33.4197 85.0715 33.397 85.1875 33.397C85.3035 33.397 85.4095 33.4197 85.5054 33.4651C85.6063 33.5055 85.6921 33.5635 85.7627 33.6392C85.8384 33.7098 85.8964 33.7956 85.9368 33.8965C85.9822 33.9924 86.0049 34.0958 86.0049 34.2068C86.0049 34.4389 85.9267 34.6331 85.7703 34.7896C85.6139 34.946 85.4196 35.0242 85.1875 35.0242C85.0715 35.0242 84.963 35.004 84.8621 34.9636C84.7662 34.9182 84.6829 34.8602 84.6123 34.7896C84.5417 34.7139 84.4836 34.6281 84.4382 34.5322C84.3979 34.4313 84.3777 34.3228 84.3777 34.2068ZM87.6245 42.0173C87.6245 41.6187 87.7052 41.2731 87.8667 40.9805C88.0332 40.6878 88.2527 40.4381 88.5251 40.2312C88.7976 40.0243 89.1079 39.8578 89.4561 39.7317C89.8042 39.6005 90.165 39.4996 90.5383 39.429C90.9117 39.3533 91.28 39.3028 91.6433 39.2776C92.0066 39.2473 92.3396 39.2297 92.6423 39.2246V38.8386C92.6423 38.5056 92.5994 38.218 92.5137 37.9758C92.4279 37.7336 92.3068 37.5343 92.1504 37.3779C91.994 37.2165 91.8048 37.0979 91.5828 37.0222C91.3658 36.9415 91.1261 36.9011 90.8638 36.9011C90.6821 36.9011 90.503 36.9163 90.3264 36.9465C90.1498 36.9768 89.9657 37.0273 89.7739 37.0979C89.5872 37.1685 89.3879 37.2644 89.176 37.3855C88.9692 37.5066 88.7446 37.6605 88.5024 37.8472L88.4268 37.8018L88.9414 36.7346C89.1079 36.6589 89.2719 36.5984 89.4333 36.553C89.5948 36.5025 89.7588 36.4622 89.9253 36.4319C90.0918 36.4016 90.2608 36.3814 90.4324 36.3713C90.609 36.3562 90.7931 36.3486 90.9849 36.3486C91.5146 36.3486 91.9662 36.4142 92.3396 36.5454C92.718 36.6715 93.0258 36.8481 93.2629 37.0752C93.5051 37.2972 93.6817 37.5596 93.7927 37.8623C93.9037 38.16 93.9592 38.4804 93.9592 38.8235V41.2908C93.9592 41.7196 93.9643 42.0955 93.9744 42.4185C93.9895 42.7363 94.0046 43.0113 94.0198 43.2434C94.04 43.4755 94.0627 43.6698 94.0879 43.8262C94.1182 43.9826 94.1484 44.1138 94.1787 44.2197V44.25H92.5061V44.2197C92.5313 44.139 92.549 44.0482 92.5591 43.9473C92.5742 43.8464 92.5868 43.7253 92.5969 43.584C92.491 43.6748 92.3648 43.7681 92.2185 43.864C92.0772 43.9599 91.9132 44.0482 91.7266 44.1289C91.5449 44.2046 91.3406 44.2651 91.1135 44.3105C90.8915 44.361 90.6468 44.3862 90.3794 44.3862C89.5015 44.3862 88.8228 44.1819 88.3435 43.7732C87.8642 43.3595 87.6245 42.7742 87.6245 42.0173ZM92.6423 39.8149C92.1832 39.82 91.7417 39.8477 91.3179 39.8982C90.894 39.9436 90.5181 40.042 90.1902 40.1934C89.8673 40.3447 89.6074 40.5617 89.4106 40.8442C89.2189 41.1217 89.123 41.4926 89.123 41.9568C89.123 42.5522 89.2719 43.0063 89.5696 43.3191C89.8673 43.6319 90.2785 43.7883 90.8032 43.7883C91.0454 43.7883 91.2649 43.7555 91.4617 43.6899C91.6635 43.6193 91.8401 43.5335 91.9915 43.4326C92.1479 43.3267 92.2791 43.2131 92.385 43.092C92.491 42.9659 92.5717 42.8448 92.6272 42.7288C92.6373 42.537 92.6423 42.3251 92.6423 42.093C92.6423 41.8559 92.6423 41.5885 92.6423 41.2908V39.8149Z" fill="black"/>
</svg>
