<svg width="125" height="54" viewBox="0 0 125 54" fill="none" xmlns="http://www.w3.org/2000/svg">
<path d="M1.71533 23V8.53333H4.48467L10.6433 18.7427H9.176L15.2313 8.53333H17.98L18.0213 23H14.88L14.8593 13.3487H15.438L10.602 21.4707H9.09333L4.154 13.3487H4.85667V23H1.71533ZM21.2263 23V11.8813H24.4503V23H21.2263ZM22.8383 10.3313C22.2458 10.3313 21.7636 10.1591 21.3916 9.81467C21.0196 9.47022 20.8336 9.04311 20.8336 8.53333C20.8336 8.02355 21.0196 7.59644 21.3916 7.252C21.7636 6.90755 22.2458 6.73533 22.8383 6.73533C23.4307 6.73533 23.913 6.90066 24.285 7.23133C24.657 7.54822 24.843 7.96155 24.843 8.47133C24.843 9.00867 24.657 9.45644 24.285 9.81467C23.9267 10.1591 23.4445 10.3313 22.8383 10.3313ZM31.9891 23.1653C30.6802 23.1653 29.6607 22.8347 28.9304 22.1733C28.2002 21.4982 27.8351 20.4993 27.8351 19.1767V9.422H31.0591V19.1353C31.0591 19.6038 31.1831 19.9689 31.4311 20.2307C31.6791 20.4787 32.0167 20.6027 32.4438 20.6027C32.9535 20.6027 33.3875 20.4649 33.7458 20.1893L34.6138 22.4627C34.2831 22.6969 33.8835 22.876 33.4151 23C32.9604 23.1102 32.4851 23.1653 31.9891 23.1653ZM26.1198 14.6093V12.1293H33.8284V14.6093H26.1198ZM36.4236 23V11.8813H39.5029V15.0227L39.0689 14.1133C39.3996 13.328 39.93 12.7356 40.6602 12.336C41.3904 11.9227 42.2791 11.716 43.3262 11.716V14.692C43.1884 14.6782 43.0644 14.6713 42.9542 14.6713C42.844 14.6576 42.7269 14.6507 42.6029 14.6507C41.7211 14.6507 41.0047 14.9056 40.4536 15.4153C39.9162 15.9113 39.6476 16.6898 39.6476 17.7507V23H36.4236ZM51.3366 23V20.83L51.13 20.3547V16.4693C51.13 15.7804 50.9164 15.2431 50.4893 14.8573C50.076 14.4716 49.4353 14.2787 48.5673 14.2787C47.9749 14.2787 47.3893 14.3751 46.8106 14.568C46.2458 14.7471 45.7635 14.9951 45.364 15.312L44.2066 13.0593C44.8129 12.6322 45.5431 12.3016 46.3973 12.0673C47.2515 11.8331 48.1195 11.716 49.0013 11.716C50.696 11.716 52.0118 12.1156 52.9486 12.9147C53.8855 13.7138 54.354 14.9607 54.354 16.6553V23H51.3366ZM47.9473 23.1653C47.0793 23.1653 46.3353 23.0207 45.7153 22.7313C45.0953 22.4282 44.62 22.0218 44.2893 21.512C43.9586 21.0022 43.7933 20.4304 43.7933 19.7967C43.7933 19.1353 43.9518 18.5567 44.2686 18.0607C44.5993 17.5647 45.116 17.1789 45.8186 16.9033C46.5213 16.614 47.4375 16.4693 48.5673 16.4693H51.5226V18.35H48.9186C48.1609 18.35 47.6373 18.474 47.348 18.722C47.0724 18.97 46.9346 19.28 46.9346 19.652C46.9346 20.0653 47.0931 20.396 47.41 20.644C47.7406 20.8782 48.1884 20.9953 48.7533 20.9953C49.2906 20.9953 49.7729 20.8713 50.2 20.6233C50.6271 20.3616 50.9371 19.9827 51.13 19.4867L51.626 20.9747C51.3918 21.6911 50.9646 22.2353 50.3446 22.6073C49.7246 22.9793 48.9255 23.1653 47.9473 23.1653ZM60.1652 23.248C59.187 23.248 58.2845 23.0689 57.4579 22.7107C56.645 22.3387 55.9767 21.8151 55.4532 21.14L57.3132 18.908C57.7127 19.4316 58.133 19.8311 58.5739 20.1067C59.0147 20.3684 59.4901 20.4993 59.9999 20.4993C61.3639 20.4993 62.0459 19.7002 62.0459 18.102V11.22H56.9619V8.53333H65.3732V17.916C65.3732 19.7071 64.9323 21.0436 64.0505 21.9253C63.1687 22.8071 61.8736 23.248 60.1652 23.248ZM75.2729 23V20.83L75.0662 20.3547V16.4693C75.0662 15.7804 74.8526 15.2431 74.4255 14.8573C74.0122 14.4716 73.3715 14.2787 72.5035 14.2787C71.9111 14.2787 71.3255 14.3751 70.7469 14.568C70.182 14.7471 69.6997 14.9951 69.3002 15.312L68.1429 13.0593C68.7491 12.6322 69.4793 12.3016 70.3335 12.0673C71.1877 11.8331 72.0557 11.716 72.9375 11.716C74.6322 11.716 75.948 12.1156 76.8849 12.9147C77.8217 13.7138 78.2902 14.9607 78.2902 16.6553V23H75.2729ZM71.8835 23.1653C71.0155 23.1653 70.2715 23.0207 69.6515 22.7313C69.0315 22.4282 68.5562 22.0218 68.2255 21.512C67.8949 21.0022 67.7295 20.4304 67.7295 19.7967C67.7295 19.1353 67.888 18.5567 68.2049 18.0607C68.5355 17.5647 69.0522 17.1789 69.7549 16.9033C70.4575 16.614 71.3737 16.4693 72.5035 16.4693H75.4589V18.35H72.8549C72.0971 18.35 71.5735 18.474 71.2842 18.722C71.0086 18.97 70.8709 19.28 70.8709 19.652C70.8709 20.0653 71.0293 20.396 71.3462 20.644C71.6769 20.8782 72.1246 20.9953 72.6895 20.9953C73.2269 20.9953 73.7091 20.8713 74.1362 20.6233C74.5633 20.3616 74.8733 19.9827 75.0662 19.4867L75.5622 20.9747C75.328 21.6911 74.9009 22.2353 74.2809 22.6073C73.6609 22.9793 72.8617 23.1653 71.8835 23.1653ZM95.4474 11.716C96.3292 11.716 97.1076 11.8951 97.7827 12.2533C98.4716 12.5978 99.0089 13.1351 99.3947 13.8653C99.7943 14.5818 99.9941 15.5049 99.9941 16.6347V23H96.7701V17.1307C96.7701 16.2351 96.5841 15.5738 96.2121 15.1467C95.8401 14.7196 95.3165 14.506 94.6414 14.506C94.1729 14.506 93.7527 14.6162 93.3807 14.8367C93.0087 15.0433 92.7194 15.3602 92.5127 15.7873C92.3061 16.2144 92.2027 16.7587 92.2027 17.42V23H88.9787V17.1307C88.9787 16.2351 88.7927 15.5738 88.4207 15.1467C88.0625 14.7196 87.5458 14.506 86.8707 14.506C86.4023 14.506 85.9821 14.6162 85.6101 14.8367C85.2381 15.0433 84.9487 15.3602 84.7421 15.7873C84.5354 16.2144 84.4321 16.7587 84.4321 17.42V23H81.2081V11.8813H84.2874V14.9193L83.7087 14.0307C84.0945 13.2729 84.6387 12.7011 85.3414 12.3153C86.0578 11.9158 86.8707 11.716 87.7801 11.716C88.7996 11.716 89.6883 11.9778 90.4461 12.5013C91.2176 13.0111 91.7274 13.7964 91.9754 14.8573L90.8387 14.5473C91.2107 13.6793 91.8032 12.9904 92.6161 12.4807C93.4427 11.9709 94.3865 11.716 95.4474 11.716ZM107.575 23.1653C106.652 23.1653 105.825 22.9862 105.095 22.628C104.379 22.2698 103.821 21.7256 103.421 20.9953C103.022 20.2513 102.822 19.3076 102.822 18.164V11.8813H106.046V17.6887C106.046 18.6118 106.239 19.2938 106.625 19.7347C107.024 20.1618 107.582 20.3753 108.299 20.3753C108.795 20.3753 109.235 20.272 109.621 20.0653C110.007 19.8449 110.31 19.5142 110.531 19.0733C110.751 18.6187 110.861 18.0538 110.861 17.3787V11.8813H114.085V23H111.027V19.9413L111.585 20.83C111.213 21.6016 110.661 22.1871 109.931 22.5867C109.215 22.9724 108.429 23.1653 107.575 23.1653ZM117.072 23V11.8813H120.151V15.0227L119.717 14.1133C120.048 13.328 120.578 12.7356 121.309 12.336C122.039 11.9227 122.928 11.716 123.975 11.716V14.692C123.837 14.6782 123.713 14.6713 123.603 14.6713C123.492 14.6576 123.375 14.6507 123.251 14.6507C122.37 14.6507 121.653 14.9056 121.102 15.4153C120.565 15.9113 120.296 16.6898 120.296 17.7507V23H117.072Z" fill="black"/>
<path d="M1.15039 44.2197C1.18066 44.1138 1.20841 43.9826 1.23364 43.8262C1.25887 43.6698 1.28158 43.4755 1.30176 43.2434C1.32194 43.0113 1.33708 42.7363 1.34717 42.4185C1.35726 42.0955 1.3623 41.7196 1.3623 41.2908V36.3638C1.3623 35.9349 1.35726 35.5615 1.34717 35.2437C1.33708 34.9207 1.32194 34.6432 1.30176 34.4111C1.28158 34.174 1.25887 33.9772 1.23364 33.8208C1.20841 33.6644 1.18066 33.5332 1.15039 33.4272V33.397H2.95923V33.4272C2.92896 33.5332 2.89868 33.6644 2.86841 33.8208C2.84318 33.9772 2.82048 34.174 2.80029 34.4111C2.78516 34.6432 2.77002 34.9207 2.75488 35.2437C2.74479 35.5615 2.73975 35.9349 2.73975 36.3638V41.2908C2.73975 41.7196 2.74479 42.0955 2.75488 42.4185C2.77002 42.7363 2.78516 43.0113 2.80029 43.2434C2.82048 43.4755 2.84318 43.6698 2.86841 43.8262C2.89868 43.9826 2.92896 44.1138 2.95923 44.2197V44.25H1.15039V44.2197ZM10.4897 39.1489C10.4897 38.4829 10.356 37.9935 10.0886 37.6807C9.82121 37.3678 9.46297 37.2114 9.01392 37.2114C8.85246 37.2114 8.67082 37.2467 8.46899 37.3174C8.26717 37.383 8.0603 37.4738 7.84839 37.5898C7.63647 37.7008 7.42456 37.832 7.21265 37.9834C7.00073 38.1348 6.80143 38.2962 6.61475 38.4678L6.59961 39.4592V41.2908C6.59961 41.7196 6.60465 42.0955 6.61475 42.4185C6.62484 42.7363 6.63997 43.0113 6.66016 43.2434C6.68034 43.4755 6.70304 43.6698 6.72827 43.8262C6.7535 43.9826 6.78125 44.1138 6.81152 44.2197V44.25H5.06323V44.2197C5.09351 44.1138 5.12126 43.9826 5.14648 43.8262C5.17676 43.6698 5.19946 43.4755 5.2146 43.2434C5.23478 43.0113 5.24992 42.7363 5.26001 42.4185C5.27515 42.0955 5.28271 41.7196 5.28271 41.2908V39.4592C5.28271 39.0304 5.27515 38.657 5.26001 38.3391C5.24992 38.0162 5.23478 37.7387 5.2146 37.5066C5.19946 37.2745 5.17676 37.0802 5.14648 36.9238C5.12126 36.7674 5.09351 36.6362 5.06323 36.5303V36.5H6.81152V36.5303C6.77116 36.6564 6.73836 36.8179 6.71313 37.0146C6.69295 37.2064 6.67025 37.4587 6.64502 37.7715C6.85189 37.5999 7.07389 37.4284 7.31104 37.2568C7.55322 37.0853 7.80298 36.9339 8.0603 36.8027C8.31763 36.6665 8.58 36.558 8.84741 36.4773C9.11483 36.3915 9.3772 36.3486 9.63452 36.3486C10.0281 36.3486 10.3611 36.4167 10.6335 36.553C10.9111 36.6892 11.1356 36.8683 11.3071 37.0903C11.4837 37.3123 11.6099 37.5671 11.6855 37.8547C11.7663 38.1373 11.8066 38.4249 11.8066 38.7175V41.2908C11.8066 41.7196 11.8117 42.0955 11.8218 42.4185C11.8319 42.7363 11.847 43.0113 11.8672 43.2434C11.8874 43.4755 11.9101 43.6698 11.9353 43.8262C11.9605 43.9826 11.9883 44.1138 12.0186 44.2197V44.25H10.2703V44.2197C10.3005 44.1138 10.3283 43.9826 10.3535 43.8262C10.3838 43.6698 10.4065 43.4755 10.4216 43.2434C10.4418 43.0113 10.4569 42.7363 10.467 42.4185C10.4822 42.0955 10.4897 41.7196 10.4897 41.2908V39.1489ZM17.5435 36.3638C17.7503 36.3638 17.9572 36.3814 18.1641 36.4167C18.3709 36.4521 18.5728 36.5025 18.7695 36.5681C18.9663 36.6337 19.153 36.7144 19.3296 36.8103C19.5062 36.9062 19.6651 37.0146 19.8064 37.1357V35.8945C19.8064 35.4657 19.8014 35.0923 19.7913 34.7744C19.7812 34.4515 19.766 34.174 19.7458 33.9419C19.7257 33.7098 19.703 33.5155 19.6777 33.3591C19.6525 33.2027 19.6248 33.0715 19.5945 32.9656V32.9353H21.3428V32.9656C21.3125 33.0715 21.2822 33.2027 21.252 33.3591C21.2267 33.5155 21.204 33.7098 21.1838 33.9419C21.1687 34.174 21.1536 34.4515 21.1384 34.7744C21.1283 35.0923 21.1233 35.4657 21.1233 35.8945V41.2908C21.1233 41.7196 21.1283 42.0955 21.1384 42.4185C21.1536 42.7363 21.1687 43.0113 21.1838 43.2434C21.204 43.4755 21.2267 43.6698 21.252 43.8262C21.2822 43.9826 21.3125 44.1138 21.3428 44.2197V44.25H19.6702V44.2197C19.6853 44.1794 19.6979 44.1213 19.708 44.0457C19.7181 43.9649 19.7307 43.8665 19.7458 43.7505C19.4885 43.9119 19.1656 44.0583 18.7771 44.1895C18.3886 44.3206 17.937 44.3862 17.4224 44.3862C16.8219 44.3862 16.277 44.2929 15.7876 44.1062C15.2982 43.9195 14.8794 43.6521 14.5312 43.304C14.1882 42.9558 13.9233 42.5345 13.7366 42.04C13.5499 41.5405 13.4565 40.9805 13.4565 40.3599C13.4565 39.7897 13.5575 39.2625 13.7593 38.7781C13.9611 38.2887 14.2437 37.8648 14.6069 37.5066C14.9702 37.1484 15.4016 36.8683 15.9011 36.6665C16.4006 36.4647 16.9481 36.3638 17.5435 36.3638ZM19.8064 38.4678C19.6046 37.938 19.3145 37.547 18.936 37.2947C18.5627 37.0424 18.1414 36.9163 17.6721 36.9163C17.2786 36.9163 16.9153 36.9869 16.5823 37.1282C16.2493 37.2644 15.9642 37.4637 15.7271 37.7261C15.4899 37.9884 15.3032 38.3114 15.167 38.6948C15.0358 39.0732 14.9702 39.5046 14.9702 39.989C14.9702 40.5339 15.0308 41.041 15.1519 41.5103C15.2729 41.9795 15.4495 42.3882 15.6816 42.7363C15.9188 43.0794 16.2114 43.3494 16.5596 43.5461C16.9077 43.7379 17.3088 43.8337 17.7629 43.8337C18.0001 43.8337 18.2221 43.806 18.429 43.7505C18.6358 43.695 18.825 43.6243 18.9966 43.5386C19.1681 43.4528 19.3195 43.3595 19.4507 43.2585C19.5819 43.1526 19.6903 43.0492 19.7761 42.9482C19.7862 42.7313 19.7938 42.484 19.7988 42.2065C19.8039 41.929 19.8064 41.6238 19.8064 41.2908V38.4678ZM22.8262 40.3599C22.8262 39.7897 22.9321 39.2625 23.144 38.7781C23.356 38.2887 23.6461 37.8648 24.0144 37.5066C24.3878 37.1484 24.8267 36.8683 25.3313 36.6665C25.8359 36.4647 26.3783 36.3638 26.9585 36.3638C27.5286 36.3638 28.0635 36.4596 28.563 36.6514C29.0675 36.8381 29.5065 37.1055 29.8799 37.4536C30.2533 37.8018 30.5459 38.2256 30.7578 38.7251C30.9748 39.2246 31.0833 39.7847 31.0833 40.4053C31.0833 40.925 30.9924 41.4245 30.8108 41.9038C30.6292 42.3831 30.3617 42.807 30.0085 43.1753C29.6554 43.5436 29.2214 43.8388 28.7068 44.0608C28.1972 44.2778 27.6094 44.3862 26.9434 44.3862C26.3783 44.3862 25.8459 44.2929 25.3464 44.1062C24.8469 43.9195 24.4105 43.6521 24.0371 43.304C23.6637 42.9558 23.3686 42.5345 23.1516 42.04C22.9347 41.5405 22.8262 40.9805 22.8262 40.3599ZM27.1174 43.8337C27.4757 43.8337 27.8036 43.7631 28.1013 43.6218C28.4041 43.4806 28.6639 43.2762 28.8809 43.0088C29.0978 42.7414 29.2668 42.4159 29.3879 42.0325C29.509 41.649 29.5696 41.2151 29.5696 40.7307C29.5696 40.1858 29.5116 39.6812 29.3955 39.217C29.2795 38.7478 29.1054 38.3442 28.8733 38.0061C28.6462 37.663 28.3586 37.3956 28.0105 37.2039C27.6624 37.0121 27.2562 36.9163 26.792 36.9163C26.4338 36.9163 26.1058 36.9869 25.8081 37.1282C25.5104 37.2644 25.2506 37.4637 25.0286 37.7261C24.8116 37.9884 24.6426 38.3114 24.5215 38.6948C24.4004 39.0732 24.3398 39.5046 24.3398 39.989C24.3398 40.5339 24.3979 41.041 24.5139 41.5103C24.635 41.9795 24.8116 42.3882 25.0437 42.7363C25.2758 43.0794 25.5634 43.3494 25.9065 43.5461C26.2546 43.7379 26.6583 43.8337 27.1174 43.8337ZM37.9932 39.1489C37.9932 38.4829 37.8595 37.9935 37.592 37.6807C37.3246 37.3678 36.9664 37.2114 36.5173 37.2114C36.3559 37.2114 36.1742 37.2467 35.9724 37.3174C35.7706 37.383 35.5637 37.4738 35.3518 37.5898C35.1399 37.7008 34.928 37.832 34.7161 37.9834C34.5042 38.1348 34.3049 38.2962 34.1182 38.4678L34.103 39.4592V41.2908C34.103 41.7196 34.1081 42.0955 34.1182 42.4185C34.1283 42.7363 34.1434 43.0113 34.1636 43.2434C34.1838 43.4755 34.2065 43.6698 34.2317 43.8262C34.2569 43.9826 34.2847 44.1138 34.3149 44.2197V44.25H32.5667V44.2197C32.5969 44.1138 32.6247 43.9826 32.6499 43.8262C32.6802 43.6698 32.7029 43.4755 32.718 43.2434C32.7382 43.0113 32.7533 42.7363 32.7634 42.4185C32.7786 42.0955 32.7861 41.7196 32.7861 41.2908V39.4592C32.7861 39.0304 32.7786 38.657 32.7634 38.3391C32.7533 38.0162 32.7382 37.7387 32.718 37.5066C32.7029 37.2745 32.6802 37.0802 32.6499 36.9238C32.6247 36.7674 32.5969 36.6362 32.5667 36.5303V36.5H34.3149V36.5303C34.2746 36.6564 34.2418 36.8179 34.2166 37.0146C34.1964 37.2064 34.1737 37.4587 34.1484 37.7715C34.3553 37.5999 34.5773 37.4284 34.8145 37.2568C35.0566 37.0853 35.3064 36.9339 35.5637 36.8027C35.821 36.6665 36.0834 36.558 36.3508 36.4773C36.6182 36.3915 36.8806 36.3486 37.1379 36.3486C37.5315 36.3486 37.8645 36.4167 38.137 36.553C38.4145 36.6892 38.639 36.8683 38.8105 37.0903C38.9871 37.3123 39.1133 37.5671 39.189 37.8547C39.2697 38.1373 39.3101 38.4249 39.3101 38.7175V41.2908C39.3101 41.7196 39.3151 42.0955 39.3252 42.4185C39.3353 42.7363 39.3504 43.0113 39.3706 43.2434C39.3908 43.4755 39.4135 43.6698 39.4387 43.8262C39.4639 43.9826 39.4917 44.1138 39.522 44.2197V44.25H37.7737V44.2197C37.804 44.1138 37.8317 43.9826 37.8569 43.8262C37.8872 43.6698 37.9099 43.4755 37.925 43.2434C37.9452 43.0113 37.9604 42.7363 37.9705 42.4185C37.9856 42.0955 37.9932 41.7196 37.9932 41.2908V39.1489ZM44.9863 44.3862C44.4263 44.3862 43.9015 44.2979 43.4121 44.1213C42.9227 43.9447 42.4963 43.6874 42.1331 43.3494C41.7698 43.0063 41.4822 42.585 41.2703 42.0854C41.0634 41.5809 40.96 41.0057 40.96 40.3599C40.96 39.7897 41.0558 39.2625 41.2476 38.7781C41.4393 38.2887 41.7042 37.8648 42.0422 37.5066C42.3803 37.1484 42.7738 36.8683 43.2229 36.6665C43.677 36.4647 44.1664 36.3638 44.6912 36.3638C45.2109 36.3638 45.6927 36.4546 46.1367 36.6362C46.5807 36.8128 46.9642 37.0727 47.2871 37.4158C47.6151 37.7538 47.8724 38.1751 48.0591 38.6797C48.2508 39.1792 48.3542 39.7493 48.3694 40.3901C47.7992 40.38 47.2291 40.3725 46.6589 40.3674C46.0888 40.3624 45.4959 40.3599 44.8804 40.3599C44.4414 40.3599 44.0125 40.3624 43.5938 40.3674C43.18 40.3725 42.8066 40.38 42.4736 40.3901C42.5039 40.9149 42.5846 41.3892 42.7158 41.813C42.8521 42.2368 43.0362 42.6001 43.2683 42.9028C43.5055 43.2005 43.7905 43.4301 44.1235 43.5916C44.4616 43.753 44.8425 43.8337 45.2664 43.8337C45.559 43.8337 45.834 43.8009 46.0913 43.7354C46.3537 43.6647 46.5908 43.5688 46.8027 43.4478C47.0146 43.3267 47.2039 43.1854 47.3704 43.0239C47.5369 42.8574 47.6781 42.6783 47.7942 42.4866L47.885 42.532L47.325 43.8792C47.0525 44.0204 46.7271 44.1415 46.3486 44.2424C45.9702 44.3383 45.5161 44.3862 44.9863 44.3862ZM43.9797 39.7695C44.4843 39.7695 44.9889 39.7695 45.4934 39.7695C46.003 39.7645 46.4647 39.7544 46.8784 39.7393C46.833 39.3003 46.7472 38.9067 46.6211 38.5586C46.495 38.2104 46.3335 37.9153 46.1367 37.6731C45.9399 37.4309 45.7078 37.2442 45.4404 37.113C45.173 36.9819 44.8778 36.9163 44.5549 36.9163C44.2623 36.9163 43.9924 36.9819 43.7451 37.113C43.5029 37.2392 43.291 37.4233 43.1094 37.6655C42.9277 37.9077 42.7814 38.2054 42.6704 38.5586C42.5594 38.9067 42.4938 39.3053 42.4736 39.7544C42.7007 39.7645 42.9403 39.7695 43.1926 39.7695C43.4449 39.7695 43.7073 39.7695 43.9797 39.7695ZM53.4175 38.0212L53.3115 38.0364C53.2762 37.9203 53.2182 37.7967 53.1375 37.6655C53.0618 37.5343 52.9609 37.4132 52.8347 37.3022C52.7136 37.1912 52.5648 37.1004 52.3882 37.0298C52.2166 36.9541 52.0173 36.9163 51.7903 36.9163C51.6339 36.9163 51.485 36.939 51.3438 36.9844C51.2075 37.0298 51.0864 37.0979 50.9805 37.1887C50.8796 37.2745 50.7988 37.383 50.7383 37.5142C50.6777 37.6453 50.6475 37.7992 50.6475 37.9758C50.6475 38.2231 50.7231 38.4602 50.8745 38.6873C51.0309 38.9093 51.2252 39.1313 51.4573 39.3533C51.6894 39.5702 51.9391 39.7897 52.2065 40.0117C52.479 40.2337 52.7313 40.4658 52.9634 40.708C53.1955 40.9502 53.3872 41.21 53.5386 41.4875C53.695 41.76 53.7732 42.0552 53.7732 42.373C53.7732 42.6304 53.7278 42.8826 53.637 43.1299C53.5461 43.3721 53.4049 43.589 53.2131 43.7808C53.0264 43.9725 52.7843 44.1289 52.4866 44.25C52.1939 44.366 51.8433 44.4241 51.4346 44.4241C51.1924 44.4241 50.9653 44.4014 50.7534 44.356C50.5465 44.3105 50.3548 44.255 50.1782 44.1895C50.0067 44.1188 49.8503 44.0431 49.709 43.9624C49.5728 43.8766 49.4517 43.7959 49.3457 43.7202L49.4214 42.2822H49.5425C49.5929 42.5194 49.6686 42.7363 49.7695 42.9331C49.8704 43.1299 49.9941 43.2989 50.1404 43.4402C50.2917 43.5764 50.4633 43.6849 50.655 43.7656C50.8468 43.8413 51.0562 43.8792 51.2832 43.8792C51.6566 43.8792 51.9517 43.7757 52.1687 43.5688C52.3907 43.362 52.5017 43.092 52.5017 42.759C52.5017 42.4916 52.426 42.2469 52.2747 42.0249C52.1283 41.7979 51.9417 41.5809 51.7146 41.374C51.4875 41.1672 51.2428 40.9603 50.9805 40.7534C50.7231 40.5465 50.481 40.3271 50.2539 40.095C50.0269 39.8578 49.8376 39.6005 49.6863 39.323C49.54 39.0404 49.4668 38.7201 49.4668 38.3618C49.4668 38.0692 49.5198 37.8018 49.6257 37.5596C49.7367 37.3123 49.8881 37.1029 50.0798 36.9314C50.2766 36.7548 50.5087 36.6186 50.7761 36.5227C51.0435 36.4268 51.3362 36.3789 51.6541 36.3789C52.0728 36.3789 52.421 36.4243 52.6985 36.5151C52.981 36.6009 53.1955 36.6842 53.3418 36.7649L53.4175 38.0212ZM55.5366 39.4592C55.5366 39.0304 55.5291 38.657 55.5139 38.3391C55.5038 38.0162 55.4887 37.7387 55.4685 37.5066C55.4534 37.2745 55.4307 37.0802 55.4004 36.9238C55.3752 36.7674 55.3474 36.6362 55.3171 36.5303V36.5H57.0654V36.5303C57.0352 36.6362 57.0074 36.7674 56.9822 36.9238C56.9569 37.0802 56.9342 37.2745 56.9141 37.5066C56.8939 37.7387 56.8787 38.0162 56.8687 38.3391C56.8586 38.657 56.8535 39.0304 56.8535 39.4592V41.2908C56.8535 41.7196 56.8586 42.0955 56.8687 42.4185C56.8787 42.7363 56.8939 43.0113 56.9141 43.2434C56.9342 43.4755 56.9569 43.6698 56.9822 43.8262C57.0074 43.9826 57.0352 44.1138 57.0654 44.2197V44.25H55.3171V44.2197C55.3474 44.1138 55.3752 43.9826 55.4004 43.8262C55.4307 43.6698 55.4534 43.4755 55.4685 43.2434C55.4887 43.0113 55.5038 42.7363 55.5139 42.4185C55.5291 42.0955 55.5366 41.7196 55.5366 41.2908V39.4592ZM55.3777 34.2068C55.3777 34.0958 55.3979 33.9924 55.4382 33.8965C55.4836 33.7956 55.5417 33.7098 55.6123 33.6392C55.6829 33.5635 55.7662 33.5055 55.8621 33.4651C55.963 33.4197 56.0715 33.397 56.1875 33.397C56.3035 33.397 56.4095 33.4197 56.5054 33.4651C56.6063 33.5055 56.6921 33.5635 56.7627 33.6392C56.8384 33.7098 56.8964 33.7956 56.9368 33.8965C56.9822 33.9924 57.0049 34.0958 57.0049 34.2068C57.0049 34.4389 56.9267 34.6331 56.7703 34.7896C56.6139 34.946 56.4196 35.0242 56.1875 35.0242C56.0715 35.0242 55.963 35.004 55.8621 34.9636C55.7662 34.9182 55.6829 34.8602 55.6123 34.7896C55.5417 34.7139 55.4836 34.6281 55.4382 34.5322C55.3979 34.4313 55.3777 34.3228 55.3777 34.2068ZM58.6245 42.0173C58.6245 41.6187 58.7052 41.2731 58.8667 40.9805C59.0332 40.6878 59.2527 40.4381 59.5251 40.2312C59.7976 40.0243 60.1079 39.8578 60.4561 39.7317C60.8042 39.6005 61.165 39.4996 61.5383 39.429C61.9117 39.3533 62.28 39.3028 62.6433 39.2776C63.0066 39.2473 63.3396 39.2297 63.6423 39.2246V38.8386C63.6423 38.5056 63.5994 38.218 63.5137 37.9758C63.4279 37.7336 63.3068 37.5343 63.1504 37.3779C62.994 37.2165 62.8048 37.0979 62.5828 37.0222C62.3658 36.9415 62.1261 36.9011 61.8638 36.9011C61.6821 36.9011 61.503 36.9163 61.3264 36.9465C61.1498 36.9768 60.9657 37.0273 60.7739 37.0979C60.5872 37.1685 60.3879 37.2644 60.176 37.3855C59.9692 37.5066 59.7446 37.6605 59.5024 37.8472L59.4268 37.8018L59.9414 36.7346C60.1079 36.6589 60.2719 36.5984 60.4333 36.553C60.5948 36.5025 60.7588 36.4622 60.9253 36.4319C61.0918 36.4016 61.2608 36.3814 61.4324 36.3713C61.609 36.3562 61.7931 36.3486 61.9849 36.3486C62.5146 36.3486 62.9662 36.4142 63.3396 36.5454C63.718 36.6715 64.0258 36.8481 64.2629 37.0752C64.5051 37.2972 64.6817 37.5596 64.7927 37.8623C64.9037 38.16 64.9592 38.4804 64.9592 38.8235V41.2908C64.9592 41.7196 64.9643 42.0955 64.9744 42.4185C64.9895 42.7363 65.0046 43.0113 65.0198 43.2434C65.04 43.4755 65.0627 43.6698 65.0879 43.8262C65.1182 43.9826 65.1484 44.1138 65.1787 44.2197V44.25H63.5061V44.2197C63.5313 44.139 63.549 44.0482 63.5591 43.9473C63.5742 43.8464 63.5868 43.7253 63.5969 43.584C63.491 43.6748 63.3648 43.7681 63.2185 43.864C63.0772 43.9599 62.9132 44.0482 62.7266 44.1289C62.5449 44.2046 62.3406 44.2651 62.1135 44.3105C61.8915 44.361 61.6468 44.3862 61.3794 44.3862C60.5015 44.3862 59.8228 44.1819 59.3435 43.7732C58.8642 43.3595 58.6245 42.7742 58.6245 42.0173ZM63.6423 39.8149C63.1832 39.82 62.7417 39.8477 62.3179 39.8982C61.894 39.9436 61.5181 40.042 61.1902 40.1934C60.8673 40.3447 60.6074 40.5617 60.4106 40.8442C60.2189 41.1217 60.123 41.4926 60.123 41.9568C60.123 42.5522 60.2719 43.0063 60.5696 43.3191C60.8673 43.6319 61.2785 43.7883 61.8032 43.7883C62.0454 43.7883 62.2649 43.7555 62.4617 43.6899C62.6635 43.6193 62.8401 43.5335 62.9915 43.4326C63.1479 43.3267 63.2791 43.2131 63.385 43.092C63.491 42.9659 63.5717 42.8448 63.6272 42.7288C63.6373 42.537 63.6423 42.3251 63.6423 42.093C63.6423 41.8559 63.6423 41.5885 63.6423 41.2908V39.8149Z" fill="black"/>
</svg>
