<svg width="17" height="16" viewBox="0 0 17 16" fill="none" xmlns="http://www.w3.org/2000/svg">
<path d="M7.25966 15.3162C7.94851 15.3162 8.50694 14.7578 8.50694 14.0689C8.50694 13.3801 7.94851 12.8217 7.25966 12.8217C6.57081 12.8217 6.01239 13.3801 6.01239 14.0689C6.01239 14.7578 6.57081 15.3162 7.25966 15.3162Z" fill="white"/>
<path d="M13.0802 15.3162C13.7691 15.3162 14.3275 14.7578 14.3275 14.0689C14.3275 13.3801 13.7691 12.8217 13.0802 12.8217C12.3914 12.8217 11.8329 13.3801 11.8329 14.0689C11.8329 14.7578 12.3914 15.3162 13.0802 15.3162Z" fill="white"/>
<path d="M15.9906 3.675H4.62714L3.66757 1.37171C3.5416 1.06832 3.3284 0.809165 3.05499 0.627085C2.78157 0.445006 2.46025 0.348201 2.13176 0.348942H0.191833V2.01197H2.13259L6.07647 11.4788C6.20535 11.7881 6.50885 11.9902 6.84396 11.9902H13.4961C13.8428 11.9902 14.153 11.7748 14.2752 11.4513L16.7698 4.79921C16.8165 4.67332 16.8321 4.538 16.8153 4.40476C16.7985 4.27152 16.7498 4.14431 16.6733 4.03394C16.5968 3.92357 16.4948 3.8333 16.376 3.7708C16.2571 3.70831 16.1249 3.67545 15.9906 3.675ZM12.6646 8.66409H11.0015V10.3271H9.3385V8.66409H7.67547V7.00106H9.3385V5.33803H11.0015V7.00106H12.6646V8.66409Z" fill="white"/>
</svg>
