<svg width="41" height="42" viewBox="0 0 41 42" fill="none" xmlns="http://www.w3.org/2000/svg">
<g clip-path="url(#clip0_1406_14363)">
<mask id="mask0_1406_14363" style="mask-type:luminance" maskUnits="userSpaceOnUse" x="0" y="0" width="41" height="42">
<path d="M0 0.5H41V41.5H0V0.5Z" fill="white"/>
</mask>
<g mask="url(#mask0_1406_14363)">
<path fill-rule="evenodd" clip-rule="evenodd" d="M13.624 5.24917C13.148 5.72508 12.7704 6.2901 12.5128 6.91195C12.2552 7.5338 12.1226 8.2003 12.1226 8.8734C12.1226 9.5465 12.2552 10.213 12.5128 10.8349C12.7704 11.4567 13.148 12.0217 13.624 12.4976L16.8749 15.7486C17.3508 16.2246 17.9158 16.6022 18.5377 16.8598C19.1595 17.1174 19.8261 17.25 20.4991 17.25C21.1722 17.25 21.8388 17.1174 22.4606 16.8598C23.0825 16.6022 23.6475 16.2246 24.1234 15.7486L27.3743 12.4976C28.3351 11.5365 28.8749 10.2332 28.8749 8.87425C28.8749 7.51529 28.3351 6.21196 27.3743 5.25088L24.1217 1.99992C23.6458 1.52393 23.0807 1.14635 22.4589 0.888736C21.837 0.631126 21.1705 0.498535 20.4974 0.498535C19.8243 0.498535 19.1578 0.631126 18.536 0.888736C17.9141 1.14635 17.3491 1.52393 16.8732 1.99992L13.624 5.24917ZM16.0413 10.0838C15.8824 9.92509 15.7564 9.73669 15.6704 9.5293C15.5845 9.32191 15.5402 9.09961 15.5402 8.87511C15.5402 8.65061 15.5845 8.42831 15.6704 8.22092C15.7564 8.01353 15.8824 7.82512 16.0413 7.66646L19.2922 4.4155C19.4509 4.25667 19.6393 4.13066 19.8467 4.04469C20.0541 3.95872 20.2764 3.91447 20.5009 3.91447C20.7254 3.91447 20.9477 3.95872 21.155 4.04469C21.3624 4.13066 21.5508 4.25667 21.7095 4.4155L24.9605 7.66646C25.2807 7.98682 25.4606 8.42126 25.4606 8.87425C25.4606 9.32724 25.2807 9.76168 24.9605 10.082L21.7095 13.333C21.5508 13.4918 21.3624 13.6178 21.155 13.7038C20.9477 13.7898 20.7254 13.834 20.5009 13.834C20.2764 13.834 20.0541 13.7898 19.8467 13.7038C19.6393 13.6178 19.4509 13.4918 19.2922 13.333L16.0413 10.0838ZM1.50334 17.3715C1.02735 17.8474 0.649763 18.4124 0.392154 19.0343C0.134544 19.6561 0.00195313 20.3226 0.00195312 20.9957C0.00195313 21.6688 0.134544 22.3353 0.392154 22.9572C0.649763 23.579 1.02735 24.144 1.50334 24.62L4.7543 27.8709C5.71538 28.8317 7.0187 29.3715 8.37767 29.3715C9.73664 29.3715 11.04 28.8317 12.001 27.8709L15.252 24.62C15.728 24.144 16.1056 23.579 16.3632 22.9572C16.6208 22.3353 16.7534 21.6688 16.7534 20.9957C16.7534 20.3226 16.6208 19.6561 16.3632 19.0343C16.1056 18.4124 15.728 17.8474 15.252 17.3715L11.9993 14.1223C11.0383 13.1615 9.73493 12.6217 8.37596 12.6217C7.017 12.6217 5.71367 13.1615 4.75259 14.1223L1.50163 17.3732L1.50334 17.3715ZM3.91892 22.2044C3.76009 22.0457 3.63408 21.8573 3.54811 21.6499C3.46214 21.4425 3.41789 21.2202 3.41789 20.9957C3.41789 20.7712 3.46214 20.5489 3.54811 20.3415C3.63408 20.1342 3.76009 19.9457 3.91892 19.7871L7.16988 16.5361C7.49024 16.2159 7.92468 16.036 8.37767 16.036C8.83066 16.036 9.2651 16.2159 9.58546 16.5361L12.8364 19.7871C12.9953 19.9457 13.1213 20.1342 13.2072 20.3415C13.2932 20.5489 13.3375 20.7712 13.3375 20.9957C13.3375 21.2202 13.2932 21.4425 13.2072 21.6499C13.1213 21.8573 12.9953 22.0457 12.8364 22.2044L9.58375 25.457C9.26339 25.7773 8.82895 25.9572 8.37596 25.9572C7.92297 25.9572 7.48853 25.7773 7.16817 25.457L3.91721 22.2061L3.91892 22.2044ZM13.6257 36.7423C12.6649 35.7812 12.1251 34.4779 12.1251 33.1189C12.1251 31.76 12.6649 30.4566 13.6257 29.4955L16.8766 26.2446C17.3525 25.7686 17.9176 25.391 18.5394 25.1334C19.1613 24.8758 19.8278 24.7432 20.5009 24.7432C21.174 24.7432 21.8405 24.8758 22.4623 25.1334C23.0842 25.391 23.6492 25.7686 24.1251 26.2446L27.376 29.4955C28.3368 30.4566 28.8766 31.76 28.8766 33.1189C28.8766 34.4779 28.3368 35.7812 27.376 36.7423L24.1217 39.9967C23.6458 40.4727 23.0807 40.8502 22.4589 41.1079C21.837 41.3655 21.1705 41.4981 20.4974 41.4981C19.8243 41.4981 19.1578 41.3655 18.536 41.1079C17.9141 40.8502 17.3491 40.4727 16.8732 39.9967L13.6223 36.7457L13.6257 36.7423ZM16.0413 31.9111C15.721 32.2315 15.5411 32.6659 15.5411 33.1189C15.5411 33.5719 15.721 34.0064 16.0413 34.3267L19.2922 37.5777C19.4509 37.7365 19.6393 37.8625 19.8467 37.9485C20.0541 38.0345 20.2764 38.0787 20.5009 38.0787C20.7254 38.0787 20.9477 38.0345 21.155 37.9485C21.3624 37.8625 21.5508 37.7365 21.7095 37.5777L24.9605 34.3267C25.2807 34.0064 25.4606 33.5719 25.4606 33.1189C25.4606 32.6659 25.2807 32.2315 24.9605 31.9111L21.7095 28.6602C21.5508 28.5013 21.3624 28.3753 21.155 28.2894C20.9477 28.2034 20.7254 28.1591 20.5009 28.1591C20.2764 28.1591 20.0541 28.2034 19.8467 28.2894C19.6393 28.3753 19.4509 28.5013 19.2922 28.6602L16.0413 31.9128V31.9111ZM25.7514 17.3732C24.7906 18.3343 24.2509 19.6376 24.2509 20.9966C24.2509 22.3556 24.7906 23.6589 25.7514 24.62L29.0024 27.8709C29.9635 28.8317 31.2668 29.3715 32.6258 29.3715C33.9847 29.3715 35.288 28.8317 36.2491 27.8709L39.5001 24.62C39.9761 24.144 40.3537 23.579 40.6113 22.9572C40.8689 22.3353 41.0015 21.6688 41.0015 20.9957C41.0015 20.3226 40.8689 19.6561 40.6113 19.0343C40.3537 18.4124 39.9761 17.8474 39.5001 17.3715L36.2491 14.1205C35.288 13.1598 33.9847 12.62 32.6258 12.62C31.2668 12.62 29.9635 13.1598 29.0024 14.1205L25.7514 17.3732ZM28.167 22.2044C28.0082 22.0457 27.8822 21.8573 27.7962 21.6499C27.7102 21.4425 27.666 21.2202 27.666 20.9957C27.666 20.7712 27.7102 20.5489 27.7962 20.3415C27.8822 20.1342 28.0082 19.9457 28.167 19.7871L31.418 16.5361C31.7383 16.2159 32.1728 16.036 32.6258 16.036C33.0787 16.036 33.5132 16.2159 33.8335 16.5361L37.0845 19.7871C37.2433 19.9457 37.3693 20.1342 37.4553 20.3415C37.5413 20.5489 37.5855 20.7712 37.5855 20.9957C37.5855 21.2202 37.5413 21.4425 37.4553 21.6499C37.3693 21.8573 37.2433 22.0457 37.0845 22.2044L33.8335 25.4553C33.5132 25.7756 33.0787 25.9555 32.6258 25.9555C32.1728 25.9555 31.7383 25.7756 31.418 25.4553L28.167 22.2044Z" fill="#1A1A1A"/>
</g>
</g>
<defs>
<clipPath id="clip0_1406_14363">
<rect width="41" height="41" fill="white" transform="translate(0 0.5)"/>
</clipPath>
</defs>
</svg>
